<?xml version="1.0" encoding="UTF-8" standalone="no"?>
<!-- Created with Inkscape (http://www.inkscape.org/) -->

<svg
   width="115.34061mm"
   height="115.34006mm"
   viewBox="0 0 115.34061 115.34006"
   version="1.1"
   id="svg5"
   xml:space="preserve"
   xmlns="http://www.w3.org/2000/svg"
   xmlns:svg="http://www.w3.org/2000/svg"><defs
     id="defs2" /><g
     id="layer1"
     transform="translate(385.92765,-375.16753)"><path
       style="fill:#ffffff;stroke-width:0.264583"
       d="m -363.49403,490.12755 c -11.3688,-1.91322 -20.57518,-11.35348 -22.15595,-22.7188 -1.02159,-7.345 0.80129,-14.66904 5.0467,-20.27671 0.82627,-1.09141 4.57803,-5.03459 8.33724,-8.76262 7.43149,-7.36988 7.66775,-7.53799 10.28823,-7.32068 3.38836,0.28099 5.63453,3.42368 4.87549,6.82144 -0.31878,1.427 -0.47173,1.60478 -7.51275,8.73269 -7.77984,7.87586 -8.57743,8.93421 -9.5378,12.65623 -0.67322,2.60912 -0.574,6.36507 0.23585,8.92821 2.09101,6.61796 8.03719,10.97408 14.99107,10.98233 3.07078,0.004 5.21338,-0.49475 7.78233,-1.81027 1.67578,-0.85814 3.2541,-2.34833 16.57978,-15.65402 10.42211,-10.40648 15.04459,-15.20231 15.81168,-16.40465 1.59046,-2.49287 2.40125,-5.29986 2.40125,-8.31319 0,-4.10432 -1.24175,-7.4705 -3.86562,-10.47908 -1.95871,-2.24588 -2.32799,-3.02052 -2.34004,-4.90868 -0.0205,-3.20353 2.33219,-5.55868 5.5442,-5.5501 2.04972,0.005 3.37611,0.74169 5.20022,2.88637 4.20997,4.94983 6.41583,10.35943 6.75846,16.57426 0.33074,5.9991 -1.36132,11.85793 -4.88467,16.91343 -1.46233,2.09822 -29.83234,30.6438 -32.47401,32.67497 -5.71268,4.39247 -13.63443,6.28214 -21.08166,5.02887 z m 26.30497,-44.36277 c -2.84123,-0.63613 -7.50755,-6.8734 -9.27019,-12.39107 -0.99706,-3.12116 -1.23418,-4.80823 -1.20859,-8.59896 0.0288,-4.26097 0.67451,-7.28685 2.31087,-10.82853 1.95673,-4.23509 2.81114,-5.21831 16.41644,-18.89162 7.14257,-7.17827 13.87946,-13.728 14.97087,-14.55495 9.72148,-7.36589 23.75118,-7.07061 33.35308,0.70198 11.51302,9.31962 13.39126,26.34827 4.1932,38.01687 -0.68826,0.87312 -3.43485,3.73783 -6.10352,6.36601 -3.90106,3.84187 -5.0656,4.8402 -5.94117,5.09323 -1.64929,0.47663 -2.77143,0.38283 -4.25306,-0.3555 -2.35672,-1.1744 -3.52095,-3.62862 -2.96066,-6.24115 0.28958,-1.35025 0.52377,-1.63468 5.63174,-6.83988 5.74469,-5.85404 6.78642,-7.31452 7.67556,-10.7609 0.66449,-2.57564 0.56056,-6.49914 -0.23922,-9.03088 -2.07308,-6.56246 -8.04555,-10.92177 -14.97466,-10.92999 -3.07375,-0.004 -5.21672,0.49551 -7.78233,1.81273 -1.66298,0.8538 -3.1668,2.26301 -14.72848,13.80194 -13.4204,13.39399 -14.41951,14.53734 -15.57122,17.8192 -0.80216,2.28578 -1.00055,6.34935 -0.42278,8.65957 0.61272,2.44996 2.04278,5.14241 3.8277,7.20666 2.28384,2.64124 2.69409,4.57302 1.48602,6.9973 -0.74066,1.48631 -2.02661,2.51944 -3.69541,2.96888 -1.19684,0.32234 -1.18039,0.32246 -2.71419,-0.021 z"
       id="path1207" /></g></svg>
