<?xml version="1.0" encoding="UTF-8" standalone="no"?>
<!-- Created with Inkscape (http://www.inkscape.org/) -->

<svg
   width="14.261902mm"
   height="30.126526mm"
   viewBox="0 0 14.261902 30.126526"
   version="1.1"
   id="svg5"
   xml:space="preserve"
   xmlns="http://www.w3.org/2000/svg"
   xmlns:svg="http://www.w3.org/2000/svg"><defs
     id="defs2" /><g
     id="layer1"
     transform="translate(759.40261,-394.66881)"><path
       style="fill:#ffffff;stroke-width:0.264583"
       d="m -755.1912,424.63933 c -0.3638,-0.0676 -0.74893,-0.25976 -0.85584,-0.42699 -0.10692,-0.16723 -0.19621,-3.48897 -0.19844,-7.38166 l -0.004,-7.0776 h -1.17173 c -1.75653,0 -2.07795,-0.46025 -1.9595,-2.80584 0.0534,-1.05658 0.18178,-2.00582 0.28538,-2.10943 0.10361,-0.1036 0.76975,-0.24423 1.4803,-0.31251 l 1.29192,-0.12414 0.14234,-2.58319 c 0.21112,-3.83136 1.11061,-5.50206 3.49969,-6.50028 1.1301,-0.47219 5.69435,-0.83545 6.85065,-0.54524 0.67387,0.16913 0.69333,0.23178 0.6894,2.21953 -0.002,1.12501 -0.10628,2.20681 -0.23123,2.40399 -0.13928,0.21981 -0.93106,0.41036 -2.04647,0.49252 -1.21484,0.0895 -1.92918,0.27285 -2.15002,0.55194 -0.19128,0.24173 -0.33073,1.17756 -0.33073,2.21947 v 1.80151 l 1.65364,0.004 c 0.90951,0.002 1.93794,0.0797 2.28541,0.17269 0.61991,0.1659 0.62878,0.21132 0.47276,2.42215 -0.0984,1.39406 -0.28881,2.33544 -0.49947,2.4691 -0.18726,0.11881 -1.14414,0.21784 -2.1264,0.22007 l -1.78594,0.004 v 7.37237 7.37237 l -1.22755,0.16826 c -1.32342,0.18139 -3.00371,0.17033 -4.06412,-0.0267 z"
       id="path915-3" /></g></svg>
