<?xml version="1.0" encoding="UTF-8" standalone="no"?>
<!-- Created with Inkscape (http://www.inkscape.org/) -->

<svg
   width="101.43799mm"
   height="101.63576mm"
   viewBox="0 0 101.43799 101.63576"
   version="1.1"
   id="svg5"
   xml:space="preserve"
   xmlns="http://www.w3.org/2000/svg"
   xmlns:svg="http://www.w3.org/2000/svg"><defs
     id="defs2" /><g
     id="layer1"
     transform="translate(789.30953,21.871978)"><path
       style="fill:#000000;stroke-width:0.264583"
       d="m -782.95953,79.373598 c -2.53254,-0.80094 -4.54466,-2.54943 -5.66358,-4.92156 l -0.68642,-1.45521 v -44.3177 -44.31771 l 0.74562,-1.5184 c 1.15687,-2.35588 3.27879,-3.8846 6.12134,-4.41007 2.20053,-0.40679 85.81449,-0.40646 88.15056,3.4e-4 2.01577,0.35103 3.75332,1.39596 4.85874,2.92195 1.69672,2.34226 1.60449,-0.53821 1.52838,47.73292 -0.0632,40.08408 -0.10729,44.00787 -0.50628,45.04759 -0.97074,2.52969 -3.03657,4.5179 -5.44849,5.24378 -1.71508,0.51618 -87.46706,0.51046 -89.09987,-0.006 z m 25.00313,-39.1851 v -22.62187 h -7.27604 -7.27604 v 22.62187 22.62187 h 7.27604 7.27604 z m 23.33867,8.40052 0.077,-14.22135 0.74093,-1.50882 c 0.90385,-1.84057 2.91215,-3.71276 4.59941,-4.28767 3.33244,-1.13547 7.12739,0.22925 8.58556,3.08751 1.17195,2.29721 1.27818,3.77564 1.28305,17.85637 l 0.005,13.29531 h 7.29132 7.29132 l -0.093,-15.67656 c -0.0901,-15.18327 -0.11132,-15.74316 -0.67519,-17.79323 -0.7718,-2.80604 -2.39356,-6.03048 -3.88251,-7.71936 -4.409,-5.00102 -12.87179,-6.55216 -19.07806,-3.49682 -1.68475,0.82939 -3.82783,2.67348 -5.34771,4.6016 l -0.83426,1.05834 -0.009,-3.10886 -0.009,-3.10885 h -7.27604 -7.27604 v 22.62187 22.62187 h 7.26523 7.26524 z M -761.10945,9.9197477 c 2.58296,-1.3319 3.95547,-3.48617 4.1465,-6.50833 0.21071,-3.33355004 -1.30198,-6.07988 -4.10771,-7.45766 -1.97891,-0.97176 -5.07023,-1.05281 -6.93991,-0.18193 -6.25993,2.91579 -5.84219,12.13894 0.66146,14.6041503 1.32621,0.5027 4.88457,0.24252 6.23966,-0.4562303 z"
       id="path1135" /></g></svg>
