<?xml version="1.0" encoding="UTF-8" standalone="no"?>
<!-- Created with Inkscape (http://www.inkscape.org/) -->

<svg
   width="30.19104mm"
   height="24.595703mm"
   viewBox="0 0 30.19104 24.595703"
   version="1.1"
   id="svg5"
   xml:space="preserve"
   inkscape:version="1.2.2 (732a01da63, 2022-12-09, custom)"
   sodipodi:docname="blog-assets"
   xmlns:inkscape="http://www.inkscape.org/namespaces/inkscape"
   xmlns:sodipodi="http://sodipodi.sourceforge.net/DTD/sodipodi-0.dtd"
   xmlns="http://www.w3.org/2000/svg"
   xmlns:svg="http://www.w3.org/2000/svg"><sodipodi:namedview
     id="namedview7"
     pagecolor="#ffffff"
     bordercolor="#999999"
     borderopacity="1"
     inkscape:showpageshadow="0"
     inkscape:pageopacity="0"
     inkscape:pagecheckerboard="0"
     inkscape:deskcolor="#d1d1d1"
     inkscape:document-units="mm"
     showgrid="false"
     showguides="false"
     inkscape:zoom="0.51969076"
     inkscape:cx="-2113.757"
     inkscape:cy="-68.309854"
     inkscape:window-width="1920"
     inkscape:window-height="1005"
     inkscape:window-x="0"
     inkscape:window-y="1944"
     inkscape:window-maximized="1"
     inkscape:current-layer="layer1" /><defs
     id="defs2" /><g
     inkscape:label="Layer 1"
     inkscape:groupmode="layer"
     id="layer1"
     transform="translate(552.91353,50.798644)"><path
       style="fill:#000000;stroke-width:0.264583"
       d="m -548.33913,-26.840823 c -1.09141,-0.328554 -2.56714,-0.898589 -3.2794,-1.266743 l -1.29502,-0.669369 2.27185,-0.160327 c 2.31346,-0.163264 4.22571,-0.778957 5.93173,-1.909858 l 0.85105,-0.564145 -1.35078,-0.346194 c -1.45285,-0.372354 -3.15472,-1.69408 -3.80802,-2.95743 -0.52314,-1.01163 -0.51415,-1.02521 0.67859,-1.02521 1.17728,0 1.41804,-0.38152 0.40172,-0.636599 -0.91601,-0.229903 -2.45547,-1.642398 -3.04106,-2.790238 -0.45244,-0.88687 -0.98585,-2.92696 -0.76355,-2.9203 0.0526,0.002 0.66114,0.17447 1.35236,0.38422 0.69123,0.20975 1.25678,0.34417 1.25678,0.29873 0,-0.0455 -0.41548,-0.52316 -0.92328,-1.06158 -1.59679,-1.69309 -2.04726,-4.28981 -1.14288,-6.58806 l 0.29361,-0.74611 1.48158,1.44776 c 2.95298,2.88557 5.82178,4.26038 10.52223,5.04254 l 0.83855,0.13954 0.008,-1.59757 c 0.0107,-2.24064 1.02331,-4.01724 2.9701,-5.21105 1.34314,-0.82364 1.55465,-0.87208 3.46099,-0.7927 1.79865,0.0749 2.17149,0.18399 3.26624,0.95564 1.1576,0.81595 1.29703,0.85132 2.20291,0.55889 0.5319,-0.17171 1.30558,-0.48366 1.71928,-0.69321 0.41371,-0.20955 0.81424,-0.31896 0.89008,-0.24312 0.21489,0.21489 -0.94263,1.94936 -1.69685,2.54263 -0.5793,0.45568 -0.60549,0.53181 -0.17954,0.52189 0.27429,-0.006 0.9704,-0.17962 1.54691,-0.38495 0.57651,-0.20534 1.09354,-0.32802 1.14894,-0.27261 0.0554,0.0554 -0.5506,0.7732 -1.34667,1.5951 -1.41248,1.45831 -1.45177,1.54018 -1.62836,3.39307 -0.76636,8.041606 -5.56647,14.018277 -12.88818,16.047226 -2.75734,0.764101 -7.04407,0.724588 -9.74956,-0.08986 z"
       id="path943"
       inkscape:export-filename="../ccd44e97/twitter-logo.svg"
       inkscape:export-xdpi="96"
       inkscape:export-ydpi="96" /></g></svg>
